# Exported from Wings 3D 2.2.4
mtllib bwing_01_landingGear.mtl
o MinorLandingLeg
#12 vertices, 16 faces
v -4.6000000e-3 -5.5496352e-2 2.7922257e-3
v -4.6000000e-3 -5.5496352e-2 1.1992226e-2
v -4.6000000e-3 -5.5332106e-3 -4.5442071e-3
v -4.6000000e-3 -5.5332106e-3 4.6557929e-3
v 4.6000000e-3 -5.5496352e-2 2.7922257e-3
v 4.6000000e-3 -5.5496352e-2 1.1992226e-2
v 4.6000000e-3 -5.5332106e-3 -4.5442071e-3
v 4.6000000e-3 -5.5332106e-3 4.6557929e-3
v 4.6000000e-3 -2.9416088e-2 4.6557929e-3
v 4.6000000e-3 -3.0514781e-2 -4.5442071e-3
v -4.6000000e-3 -2.9416088e-2 4.6557929e-3
v -4.6000000e-3 -3.0514781e-2 -4.5442071e-3
vt 0.58680578 0.38716540
vt 0.58680578 0.45008588
vt 0.58680578 0.51045686
vt 0.58701006 0.39291058
vt 0.58701006 0.45838287
vt 0.58701006 0.51609873
vt 0.60903869 0.38716540
vt 0.60903869 0.45008588
vt 0.60903869 0.51045686
vt 0.60924297 0.39291058
vt 0.60924297 0.45838287
vt 0.60924297 0.51609873
vt 0.62054028 0.45093187
vt 0.62054028 0.51014271
vt 0.62054101 0.45093187
vt 0.62054101 0.51014271
vt 0.63792895 0.39172103
vt 0.63792968 0.39172103
vt 0.64234594 0.45353597
vt 0.64234594 0.51014271
vt 0.64234667 0.45353597
vt 0.64234667 0.51014271
vt 0.65973462 0.39172103
vt 0.65973534 0.39172103
vn -0.70710678 -0.19924455 -0.67845531
vn -0.70710678 0.0000000e+0 -0.70710678
vn 0.70710678 -0.19924455 -0.67845531
vn 0.70710678 0.19147889 0.68068776
vn 0.70710678 0.0000000e+0 -0.70710678
vn 0.70710678 0.0000000e+0 0.70710678
vn 0.0000000e+0 0.27079205 0.96263787
vn -1.00000000 -5.6483355e-17 0.0000000e+0
vn -1.00000000 0.0000000e+0 0.0000000e+0
vn 0.0000000e+0 0.0000000e+0 1.00000000
vn 0.70710678 0.19147889 0.68068776
vn 0.70710678 0.19147889 0.68068776
vn 0.70710678 0.0000000e+0 0.70710678
vn 0.70710678 0.0000000e+0 0.70710678
vn 0.70710678 0.0000000e+0 -0.70710678
vn 0.70710678 -0.19924455 -0.67845531
vn 0.70710678 -0.19924455 -0.67845531
vn 0.70710678 0.0000000e+0 -0.70710678
vn 0.70710678 -0.19924455 -0.67845531
vn 0.70710678 0.0000000e+0 -0.70710678
vn 0.70710678 0.0000000e+0 -0.70710678
vn 0.70710678 -0.19924455 -0.67845531
vn 0.0000000e+0 0.27079205 0.96263787
vn -1.00000000 -1.4120839e-17 0.0000000e+0
vn 0.0000000e+0 0.0000000e+0 1.00000000
vn -1.00000000 -1.4120839e-17 0.0000000e+0
vn 0.0000000e+0 0.27079205 0.96263787
vn -1.00000000 -1.4120839e-17 0.0000000e+0
vn 0.0000000e+0 0.0000000e+0 1.00000000
vn -1.00000000 -1.4120839e-17 0.0000000e+0
vn -0.71071566 -0.10013072 -0.69631681
vn -0.71071566 -0.10013072 -0.69631681
vn -0.71071566 -0.10013072 -0.69631681
vn -0.71071566 -0.10013072 -0.69631681
g MinorLandingLeg_MinorLandingLeg_auv
usemtl MinorLandingLeg_auv
s 1
f 1/7/1 10/2/17 5/1/3
f 1/17/1 11/19/24 12/13/32
f 2/4/7 6/10/4 11/5/27
f 2/23/8 11/19/30 1/17/1
f 3/9/2 10/2/15 12/8/31
f 3/14/2 11/19/28 4/20/9
f 4/6/10 11/5/29 8/12/6
f 5/18/3 10/15/19 6/24/4
f 6/24/4 10/15/16 9/21/12
f 7/3/5 10/2/21 3/9/2
f 8/22/6 10/15/20 7/16/5
f 8/12/6 11/5/25 9/11/13
f 9/21/14 10/15/18 8/22/6
f 9/11/11 11/5/23 6/10/4
f 12/8/34 10/2/22 1/7/1
f 12/13/33 11/19/26 3/14/2
