# Exported from Wings 3D 2.2.4
mtllib bwing_01_landingMinorPad.mtl
o MinorLandingPad
#8 vertices, 12 faces
v -8.8453584e-3 2.9552141e-3 5.6537133e-3
v -8.8453584e-3 2.9552141e-3 -2.0847474e-2
v 8.8453584e-3 2.9552141e-3 -2.0847474e-2
v 8.8453584e-3 2.9552141e-3 5.6537133e-3
v -8.8453584e-3 -3.5828037e-3 1.1865879e-2
v -8.8453584e-3 -3.5828037e-3 -2.7059640e-2
v 8.8453584e-3 -3.5828037e-3 -2.7059640e-2
v 8.8453584e-3 -3.5828037e-3 1.1865879e-2
vt 0.51645206 0.40077803
vt 0.51648070 0.45208621
vt 0.52909366 0.37128296
vt 0.52910341 0.38874377
vt 0.52914548 0.46410634
vt 0.52915523 0.48156715
vt 0.52918387 0.53287533
vt 0.56334414 0.37126384
vt 0.56335389 0.38872465
vt 0.56339596 0.46408722
vt 0.56340571 0.48154803
vt 0.56343435 0.53285621
vt 0.57601867 0.40074478
vt 0.57604731 0.45205296
vn 0.78509800 -0.24431418 -0.56915000
vn 0.0000000e+0 0.91891528 0.39445494
vn 0.0000000e+0 0.91891528 0.39445494
vn -1.00000000 -3.1287354e-16 0.0000000e+0
vn -1.00000000 -1.5643677e-16 0.0000000e+0
vn 0.0000000e+0 0.68881060 -0.72494135
vn 0.0000000e+0 1.00000000 0.0000000e+0
vn 0.0000000e+0 1.00000000 0.0000000e+0
vn 0.0000000e+0 0.68881060 -0.72494135
vn -1.00000000 -1.5643677e-16 0.0000000e+0
vn 0.0000000e+0 1.00000000 0.0000000e+0
vn 0.70710678 0.48706265 -0.51261094
vn 0.70710678 0.48706265 -0.51261094
vn 1.00000000 -1.5643677e-16 0.0000000e+0
vn 0.0000000e+0 0.91891528 0.39445494
vn 0.0000000e+0 0.91891528 0.39445494
vn 1.00000000 -1.5643677e-16 0.0000000e+0
vn 0.0000000e+0 0.91891528 0.39445494
vn 0.0000000e+0 0.91891528 0.39445494
vn -0.78509800 -0.24431418 0.56915000
vn -0.78509800 -0.24431418 0.56915000
vn -0.78509800 -0.24431418 0.56915000
vn -0.78509800 -0.24431418 0.56915000
vn -0.78509800 -0.24431418 0.56915000
vn -0.78509800 -0.24431418 0.56915000
vn -0.78509800 -0.24431418 -0.56915000
vn -0.78509800 -0.24431418 -0.56915000
vn -0.78509800 -0.24431418 -0.56915000
vn 0.78509800 -0.24431418 0.56915000
vn 0.78509800 -0.24431418 0.56915000
vn 0.78509800 -0.24431418 0.56915000
g MinorLandingPad_MinorLandingPad_auv
usemtl MinorLandingPad_auv
s 1
f 1/6/2 4/11/18 2/7/8
f 1/6/3 5/5/24 4/11/19
f 2/7/7 4/11/16 3/12/11
f 2/1/10 5/5/25 1/2/4
f 3/8/13 7/9/1 2/3/9
f 4/14/17 7/9/1 3/13/12
f 5/5/21 2/1/5 6/4/26
f 6/4/27 2/3/6 7/9/1
f 6/4/28 7/9/1 5/5/23
f 7/9/1 4/14/14 8/10/30
f 8/10/31 4/11/15 5/5/22
f 8/10/29 5/5/20 7/9/1
