# Exported from Wings 3D 2.2.4
mtllib bwing_01_wing.mtl
o Wing2
#28 vertices, 52 faces
v -7.4621505e-3 0.14489312 2.8310310e-3
v -7.4621505e-3 0.14489312 5.7273512e-2
v 6.8089235e-3 0.14489312 2.8310310e-3
v 6.8089235e-3 0.14489312 5.7273512e-2
v -3.2661348e-4 -9.0221304e-3 5.7273512e-2
v -3.2661348e-4 -9.0221304e-3 -6.3488431e-2
v 6.8089235e-3 6.4650606e-3 5.7273512e-2
v 6.8089235e-3 6.4650606e-3 -6.3488431e-2
v -7.4621505e-3 6.4650606e-3 5.7273512e-2
v -7.4621505e-3 6.4650606e-3 -6.3488431e-2
v -7.4621505e-3 0.12966632 5.7273512e-2
v 6.8089235e-3 0.12966632 5.7273512e-2
v -3.4974296e-3 0.13363104 0.11114210
v 2.8442026e-3 0.13363104 0.11114210
v 2.8442026e-3 0.14092840 0.11114210
v -3.4974296e-3 0.14092840 0.11114210
v -3.4974296e-3 0.14092840 5.7273512e-2
v 2.8442026e-3 0.14092840 5.7273512e-2
v -3.4974296e-3 0.13363104 5.7273512e-2
v 2.8442026e-3 0.13363104 5.7273512e-2
v -2.3559358e-3 0.13477254 0.11114210
v 1.7027088e-3 0.13477254 0.11114210
v 1.7027088e-3 0.13978690 0.11114210
v -2.3559358e-3 0.13978690 0.11114210
v -2.3559358e-3 0.13477254 0.16976145
v 1.7027088e-3 0.13477254 0.16976145
v 1.7027088e-3 0.13978690 0.16976145
v -2.3559358e-3 0.13978690 0.16976145
vt 6.1723201e-3 0.23015828
vt 6.1743071e-3 0.20368787
vt 6.1889754e-3 8.2850023e-3
vt 6.3962247e-3 0.23771635
vt 6.4025900e-3 0.45032392
vt 1.0313284e-2 0.22601794
vt 1.0314650e-2 0.20782884
vt 2.4590330e-2 0.23771512
vt 2.4596696e-2 0.45032407
vt 2.5035608e-2 0.22601905
vt 2.5036973e-2 0.20782994
vt 2.9175950e-2 0.23016001
vt 2.9177937e-2 0.20368960
vt 2.9192606e-2 8.2867291e-3
vt 3.9315187e-2 0.23772366
vt 3.9321552e-2 0.45031465
vt 5.5648348e-2 0.20369159
vt 5.5663016e-2 8.2887161e-3
vt 5.7509525e-2 0.23773541
vt 5.7510118e-2 0.21954631
vt 5.7515297e-2 0.45030180
vt 7.2232441e-2 0.21954631
vt 7.2233034e-2 0.23773541
vt 7.2239990e-2 0.45030092
vt 7.8651978e-2 0.20369331
vt 7.8666646e-2 8.2904429e-3
vt 0.10512239 0.20369530
vt 0.10513706 8.2924300e-3
vt 0.22596123 3.7033710e-2
vt 0.22596123 0.29355367
vt 0.22596123 0.32525770
vt 0.22596123 0.43861355
vt 0.22596123 0.75820795
vt 0.23421626 0.30180870
vt 0.23421626 0.31700267
vt 0.24081829 4.7875012e-3
vt 0.24081829 0.79045416
vt 0.24742031 0.31700267
vt 0.24742031 0.30180870
vt 0.25567534 3.7033710e-2
vt 0.25567534 0.29355367
vt 0.25567534 0.43861355
vt 0.25567534 0.32525770
vt 0.25567534 0.75820795
vt 0.26348619 0.29212049
vt 0.26348619 9.2530627e-3
vt 0.26348619 4.3644011e-2
vt 0.26348619 0.32283040
vt 0.26348896 9.2530627e-3
vt 0.26348896 4.3644011e-2
vt 0.26348896 0.29212049
vt 0.26348896 0.32283040
vt 0.37328763 0.32283040
vt 0.37329040 0.32283040
vt 0.50704296 9.2530627e-3
vt 0.50704296 4.3644011e-2
vt 0.50704573 9.2530627e-3
vt 0.50704573 4.3644011e-2
vn -0.31622777 0.0000000e+0 0.94868330
vn -0.66329311 0.63325201 -0.39879086
vn -0.66329311 0.63325201 -0.39879086
vn -0.66329311 0.63325201 -0.39879086
vn -0.66329311 0.63325201 -0.39879086
vn -0.66329311 0.63325201 -0.39879086
vn -0.66329311 0.63325201 -0.39879086
vn -0.66329311 0.63325201 -0.39879086
vn -0.40824829 0.40824829 0.81649658
vn -0.40824829 0.40824829 0.81649658
vn -0.40824829 0.40824829 0.81649658
vn -0.40824829 0.40824829 0.81649658
vn 0.0000000e+0 1.00000000 0.0000000e+0
vn 1.00000000 2.1618960e-18 0.0000000e+0
vn 1.00000000 2.1618960e-18 0.0000000e+0
vn 1.00000000 2.1618960e-18 0.0000000e+0
vn 0.0000000e+0 0.43206375 -0.90184306
vn 0.0000000e+0 1.00000000 0.0000000e+0
vn 1.00000000 0.0000000e+0 0.0000000e+0
vn 3.8890350e-17 0.0000000e+0 1.00000000
vn 3.8890350e-17 0.0000000e+0 1.00000000
vn 0.0000000e+0 1.00000000 0.0000000e+0
vn 3.8890350e-17 0.0000000e+0 1.00000000
vn 3.8890350e-17 0.0000000e+0 1.00000000
vn 0.0000000e+0 0.0000000e+0 1.00000000
vn 0.0000000e+0 -1.00000000 0.0000000e+0
vn 0.0000000e+0 -1.00000000 0.0000000e+0
vn 0.0000000e+0 0.0000000e+0 -1.00000000
vn -6.6328108e-17 -1.00000000 0.0000000e+0
vn 6.6328108e-17 -1.00000000 0.0000000e+0
vn 6.6328108e-17 -1.00000000 0.0000000e+0
vn -6.6328108e-17 -1.00000000 0.0000000e+0
vn 0.0000000e+0 0.0000000e+0 1.00000000
vn 0.97678959 -0.21420106 0.0000000e+0
vn 0.0000000e+0 0.0000000e+0 1.00000000
vn 0.97678959 -0.21420106 0.0000000e+0
vn 0.0000000e+0 0.0000000e+0 1.00000000
vn 0.97678959 -0.21420106 0.0000000e+0
vn 0.97678959 -0.21420106 0.0000000e+0
vn 0.0000000e+0 0.29453882 -0.95563952
vn 0.0000000e+0 0.29453882 -0.95563952
vn 0.97678959 -0.21420106 0.0000000e+0
vn 0.97678959 -0.21420106 0.0000000e+0
vn 0.0000000e+0 0.29453882 -0.95563952
vn -0.86949590 -0.19067253 0.45565433
vn -0.86949590 -0.19067253 0.45565433
vn -0.86949590 -0.19067253 0.45565433
vn -0.86949590 -0.19067253 0.45565433
vn -0.86949590 -0.19067253 0.45565433
vn -0.86949590 -0.19067253 0.45565433
vn -0.70828317 5.0498010e-3 -0.70591037
vn -0.70828317 5.0498010e-3 -0.70591037
vn -0.70828317 5.0498010e-3 -0.70591037
vn -0.70828317 5.0498010e-3 -0.70591037
vn 1.00000000 0.0000000e+0 0.0000000e+0
vn -1.1972860e-15 0.0000000e+0 1.00000000
vn -1.1972860e-15 0.0000000e+0 1.00000000
vn 1.00000000 0.0000000e+0 0.0000000e+0
vn -1.1972860e-15 0.0000000e+0 1.00000000
vn -0.70710678 -0.70710678 0.0000000e+0
vn -0.70710678 -0.70710678 0.0000000e+0
vn -1.7724629e-15 0.0000000e+0 1.00000000
vn -1.7724629e-15 0.0000000e+0 1.00000000
vn -0.70710678 -0.70710678 0.0000000e+0
vn -0.70710678 -0.70710678 0.0000000e+0
vn -1.7724629e-15 0.0000000e+0 1.00000000
vn -1.7724629e-15 0.0000000e+0 1.00000000
vn 0.70710678 -0.70710678 0.0000000e+0
vn 1.3015815e-14 0.0000000e+0 1.00000000
vn 1.3015815e-14 0.0000000e+0 1.00000000
vn 0.70710678 -0.70710678 0.0000000e+0
vn 1.00000000 0.0000000e+0 0.0000000e+0
vn 5.8208493e-15 0.44721360 0.89442719
vn 5.8208493e-15 0.44721360 0.89442719
vn 5.8208493e-15 0.44721360 0.89442719
vn 5.8208493e-15 0.44721360 0.89442719
vn 5.8208493e-15 0.44721360 0.89442719
vn 5.8208493e-15 0.44721360 0.89442719
vn 1.00000000 0.0000000e+0 0.0000000e+0
vn -0.40824829 0.40824829 0.81649658
vn -0.40824829 0.40824829 0.81649658
vn -0.40824829 0.40824829 0.81649658
vn -0.40824829 0.40824829 0.81649658
vn -0.70710678 0.70710678 0.0000000e+0
vn -0.70710678 0.70710678 0.0000000e+0
vn -3.8890350e-17 0.0000000e+0 1.00000000
vn -3.8890350e-17 0.0000000e+0 1.00000000
vn -0.70710678 0.70710678 0.0000000e+0
vn -0.70710678 0.70710678 0.0000000e+0
vn -3.8890350e-17 0.0000000e+0 1.00000000
vn -3.8890350e-17 0.0000000e+0 1.00000000
vn 1.00000000 0.0000000e+0 0.0000000e+0
vn 0.0000000e+0 1.00000000 0.0000000e+0
vn 1.8737097e-15 0.0000000e+0 1.00000000
vn 1.8737097e-15 0.0000000e+0 1.00000000
vn -0.70710678 -0.70710678 0.0000000e+0
vn -0.70710678 -0.70710678 0.0000000e+0
vn -1.8737097e-15 0.0000000e+0 1.00000000
vn -1.8737097e-15 0.0000000e+0 1.00000000
vn 0.70710678 -0.70710678 0.0000000e+0
vn 0.70710678 -0.70710678 0.0000000e+0
vn 3.8890350e-17 0.0000000e+0 1.00000000
vn 3.8890350e-17 0.0000000e+0 1.00000000
vn 3.8890350e-17 0.0000000e+0 1.00000000
vn 0.70710678 -0.70710678 0.0000000e+0
vn 0.70710678 -0.70710678 0.0000000e+0
vn 3.8890350e-17 0.0000000e+0 1.00000000
vn 9.4708887e-15 0.0000000e+0 1.00000000
vn 9.4708887e-15 0.0000000e+0 1.00000000
vn -0.70710678 -0.70710678 0.0000000e+0
vn -0.70710678 -0.70710678 0.0000000e+0
vn 6.5079073e-15 0.0000000e+0 1.00000000
vn 6.5079073e-15 0.0000000e+0 1.00000000
vn 0.70710678 -0.70710678 0.0000000e+0
vn 0.70710678 -0.70710678 0.0000000e+0
vn 0.70710678 -0.70710678 0.0000000e+0
vn 0.70710678 -0.70710678 0.0000000e+0
vn 6.5079073e-15 0.0000000e+0 1.00000000
vn 6.5079073e-15 0.0000000e+0 1.00000000
vn 0.0000000e+0 0.0000000e+0 1.00000000
vn 0.0000000e+0 0.0000000e+0 1.00000000
vn 1.00000000 0.0000000e+0 0.0000000e+0
vn 0.0000000e+0 1.00000000 0.0000000e+0
vn -1.7724629e-15 0.0000000e+0 1.00000000
vn -1.7724629e-15 0.0000000e+0 1.00000000
vn -0.70710678 0.70710678 0.0000000e+0
vn -0.70710678 0.70710678 0.0000000e+0
vn -1.7724629e-15 0.0000000e+0 1.00000000
vn -0.70710678 0.70710678 0.0000000e+0
vn -0.70710678 0.70710678 0.0000000e+0
vn -1.7724629e-15 0.0000000e+0 1.00000000
vn 0.0000000e+0 0.0000000e+0 1.00000000
vn -0.70710678 -0.70710678 0.0000000e+0
vn -0.70710678 -0.70710678 0.0000000e+0
vn -0.70710678 -0.70710678 0.0000000e+0
vn 0.0000000e+0 0.0000000e+0 1.00000000
vn -0.70710678 -0.70710678 0.0000000e+0
vn 0.70710678 -0.70710678 0.0000000e+0
vn 0.70710678 -0.70710678 0.0000000e+0
vn 0.0000000e+0 0.0000000e+0 1.00000000
vn 0.0000000e+0 0.0000000e+0 1.00000000
vn 1.00000000 0.0000000e+0 0.0000000e+0
vn 0.0000000e+0 1.00000000 0.0000000e+0
vn 0.0000000e+0 0.0000000e+0 1.00000000
vn 1.00000000 0.0000000e+0 0.0000000e+0
vn 0.0000000e+0 1.00000000 0.0000000e+0
vn 0.0000000e+0 0.0000000e+0 1.00000000
vn -0.70710678 0.70710678 0.0000000e+0
vn -0.70710678 0.70710678 0.0000000e+0
g Wing2_Wing2_auv
usemtl Wing2_auv
s 1
f 1/32/2 4/43/18 3/42/13
f 1/32/3 8/44/40 10/33/51
f 1/54/5 11/51/1 2/52/9
f 2/31/10 4/43/22 1/32/6
f 2/31/12 17/35/91 4/43/24
f 3/53/15 7/47/36 8/56/43
f 3/42/17 8/44/44 1/32/7
f 4/48/19 12/45/55 3/53/14
f 4/43/20 17/35/86 18/38/94
f 4/43/23 20/39/104 12/41/56
f 5/46/26 6/55/31 7/47/39
f 6/57/29 9/50/47 10/58/54
f 6/37/28 10/33/53 8/44/41
f 7/47/38 3/53/16 12/45/58
f 7/40/33 9/29/46 5/36/25
f 8/56/42 7/47/34 6/55/30
f 9/50/49 6/57/32 5/49/27
f 9/29/48 7/40/35 11/30/1
f 10/58/52 9/50/45 1/54/4
f 11/51/1 1/54/8 9/50/50
f 11/30/1 17/35/90 2/31/11
f 11/30/1 20/39/102 19/34/98
f 12/41/57 11/30/1 7/40/37
f 12/41/59 20/39/107 11/30/1
f 18/38/95 20/39/103 4/43/21
f 19/34/99 17/35/87 11/30/1
f 26/22/140 27/23/144 25/20/136
f 28/19/147 25/20/132 27/23/141
s 2
f 21/16/110 25/15/135 24/21/129
f 22/9/117 25/15/137 21/16/111
f 23/5/122 27/4/145 22/9/116
f 24/21/130 27/23/146 23/24/123
f 25/15/133 22/9/114 26/8/138
f 26/8/139 22/9/115 27/4/142
f 27/23/143 24/21/126 28/19/148
f 28/19/149 24/21/127 25/15/134
s 3
f 13/17/61 17/14/85 19/18/97
f 13/17/64 20/26/105 14/25/68
f 13/12/66 24/11/131 16/13/83
f 14/25/71 20/26/106 15/27/79
f 14/1/70 22/6/119 13/12/67
f 15/2/76 17/14/89 16/13/81
f 15/27/72 20/26/101 18/28/92
f 15/2/78 22/6/118 14/1/69
f 16/13/80 17/14/88 13/17/65
f 16/13/82 24/11/128 15/2/77
f 18/3/93 17/14/84 15/2/73
f 19/18/96 20/26/100 13/17/60
f 21/10/108 13/12/62 22/6/112
f 21/10/109 24/11/125 13/12/63
f 22/6/113 15/2/74 23/7/120
f 23/7/121 15/2/75 24/11/124
