# Exported from Wings 3D 2.2.4
mtllib bwing_01_wingLower.mtl
o Wing2_copy8
#28 vertices, 52 faces
v -7.4621505e-3 -0.14746526 2.8310310e-3
v -7.4621505e-3 -0.14746526 5.7273512e-2
v 6.8089235e-3 -0.14746526 2.8310310e-3
v 6.8089235e-3 -0.14746526 5.7273512e-2
v -3.2661348e-4 6.4499881e-3 5.7273512e-2
v -3.2661348e-4 6.4499881e-3 -6.3488431e-2
v 6.8089235e-3 -9.0372030e-3 5.7273512e-2
v 6.8089235e-3 -9.0372030e-3 -6.3488431e-2
v -7.4621505e-3 -9.0372030e-3 5.7273512e-2
v -7.4621505e-3 -9.0372030e-3 -6.3488431e-2
v -7.4621505e-3 -0.13223847 5.7273512e-2
v 6.8089235e-3 -0.13223847 5.7273512e-2
v -3.4974296e-3 -0.13620319 0.11114210
v 2.8442026e-3 -0.13620319 0.11114210
v 2.8442026e-3 -0.14350054 0.11114210
v -3.4974296e-3 -0.14350054 0.11114210
v -3.4974296e-3 -0.14350054 5.7273512e-2
v 2.8442026e-3 -0.14350054 5.7273512e-2
v -3.4974296e-3 -0.13620319 5.7273512e-2
v 2.8442026e-3 -0.13620319 5.7273512e-2
v -2.3559358e-3 -0.13734468 0.11114210
v 1.7027088e-3 -0.13734468 0.11114210
v 1.7027088e-3 -0.14235905 0.11114210
v -2.3559358e-3 -0.14235905 0.11114210
v -2.3559358e-3 -0.13734468 0.16976145
v 1.7027088e-3 -0.13734468 0.16976145
v 1.7027088e-3 -0.14235905 0.16976145
v -2.3559358e-3 -0.14235905 0.16976145
vt 6.1723201e-3 0.23015828
vt 6.1743071e-3 0.20368787
vt 6.1889754e-3 8.2850023e-3
vt 6.3962247e-3 0.23771635
vt 6.4025900e-3 0.45032392
vt 1.0313284e-2 0.22601794
vt 1.0314650e-2 0.20782884
vt 2.4590330e-2 0.23771512
vt 2.4596696e-2 0.45032407
vt 2.5035608e-2 0.22601905
vt 2.5036973e-2 0.20782994
vt 2.9175950e-2 0.23016001
vt 2.9177937e-2 0.20368960
vt 2.9192606e-2 8.2867291e-3
vt 3.9315187e-2 0.23772366
vt 3.9321552e-2 0.45031465
vt 5.5648348e-2 0.20369159
vt 5.5663016e-2 8.2887161e-3
vt 5.7509525e-2 0.23773541
vt 5.7510118e-2 0.21954631
vt 5.7515297e-2 0.45030180
vt 7.2232441e-2 0.21954631
vt 7.2233034e-2 0.23773541
vt 7.2239990e-2 0.45030092
vt 7.8651978e-2 0.20369331
vt 7.8666646e-2 8.2904429e-3
vt 0.10512239 0.20369530
vt 0.10513706 8.2924300e-3
vt 0.22596123 3.7033710e-2
vt 0.22596123 0.29355367
vt 0.22596123 0.32525770
vt 0.22596123 0.43861355
vt 0.22596123 0.75820795
vt 0.23421626 0.30180870
vt 0.23421626 0.31700267
vt 0.24081829 4.7875012e-3
vt 0.24081829 0.79045416
vt 0.24742031 0.31700267
vt 0.24742031 0.30180870
vt 0.25567534 3.7033710e-2
vt 0.25567534 0.29355367
vt 0.25567534 0.43861355
vt 0.25567534 0.32525770
vt 0.25567534 0.75820795
vt 0.26348619 0.29212049
vt 0.26348619 9.2530627e-3
vt 0.26348619 4.3644011e-2
vt 0.26348619 0.32283040
vt 0.26348896 9.2530627e-3
vt 0.26348896 4.3644011e-2
vt 0.26348896 0.29212049
vt 0.26348896 0.32283040
vt 0.37328763 0.32283040
vt 0.37329040 0.32283040
vt 0.50704296 9.2530627e-3
vt 0.50704296 4.3644011e-2
vt 0.50704573 9.2530627e-3
vt 0.50704573 4.3644011e-2
vn -0.44721360 -3.7823435e-18 0.89442719
vn -0.76337393 -0.54660007 -0.34422174
vn -0.76337393 -0.54660007 -0.34422174
vn -0.76337393 -0.54660007 -0.34422174
vn -0.76337393 -0.54660007 -0.34422174
vn -0.26726124 -0.53452248 0.80178373
vn -0.26726124 -0.53452248 0.80178373
vn -0.26726124 -0.53452248 0.80178373
vn -0.26726124 -0.53452248 0.80178373
vn -0.26726124 -0.53452248 0.80178373
vn -0.26726124 -0.53452248 0.80178373
vn 0.0000000e+0 -1.00000000 0.0000000e+0
vn 0.0000000e+0 -0.43206375 -0.90184306
vn 1.00000000 -2.1618960e-18 0.0000000e+0
vn 1.00000000 -2.1618960e-18 0.0000000e+0
vn 0.0000000e+0 -1.00000000 0.0000000e+0
vn 1.00000000 -2.1618960e-18 0.0000000e+0
vn 0.0000000e+0 -0.43206375 -0.90184306
vn 0.0000000e+0 -1.00000000 0.0000000e+0
vn 1.00000000 0.0000000e+0 0.0000000e+0
vn 0.0000000e+0 0.0000000e+0 1.00000000
vn 0.0000000e+0 0.0000000e+0 1.00000000
vn 0.0000000e+0 0.0000000e+0 1.00000000
vn 0.0000000e+0 0.0000000e+0 1.00000000
vn 6.6328108e-17 1.00000000 0.0000000e+0
vn -6.6328108e-17 1.00000000 0.0000000e+0
vn 6.6328108e-17 1.00000000 0.0000000e+0
vn -6.6328108e-17 1.00000000 0.0000000e+0
vn 0.0000000e+0 0.0000000e+0 -1.00000000
vn 0.0000000e+0 1.00000000 0.0000000e+0
vn 0.0000000e+0 1.00000000 0.0000000e+0
vn 0.0000000e+0 0.0000000e+0 1.00000000
vn 0.0000000e+0 0.0000000e+0 1.00000000
vn 0.98980621 0.14242072 0.0000000e+0
vn 0.98980621 0.14242072 0.0000000e+0
vn 0.0000000e+0 0.0000000e+0 1.00000000
vn 0.98980621 0.14242072 0.0000000e+0
vn 0.0000000e+0 -0.22153661 -0.97515206
vn 0.0000000e+0 -0.22153661 -0.97515206
vn 0.95857464 0.28484145 0.0000000e+0
vn 0.95857464 0.28484145 0.0000000e+0
vn 0.95857464 0.28484145 0.0000000e+0
vn -0.68253773 0.14967431 0.71535994
vn -0.68253773 0.14967431 0.71535994
vn -0.68253773 0.14967431 0.71535994
vn -0.68253773 0.14967431 0.71535994
vn -0.80589392 -5.7457301e-3 -0.59203207
vn -0.80589392 -5.7457301e-3 -0.59203207
vn -0.80589392 -5.7457301e-3 -0.59203207
vn -0.80589392 -5.7457301e-3 -0.59203207
vn -0.80589392 -5.7457301e-3 -0.59203207
vn -0.80589392 -5.7457301e-3 -0.59203207
vn -0.80589392 -5.7457301e-3 -0.59203207
vn 1.00000000 0.0000000e+0 0.0000000e+0
vn 1.00000000 0.0000000e+0 0.0000000e+0
vn 0.0000000e+0 0.0000000e+0 1.00000000
vn 0.0000000e+0 0.0000000e+0 1.00000000
vn 0.0000000e+0 0.0000000e+0 1.00000000
vn -0.70710678 0.70710678 0.0000000e+0
vn -0.70710678 0.70710678 0.0000000e+0
vn -1.7724629e-15 0.0000000e+0 1.00000000
vn -1.7724629e-15 0.0000000e+0 1.00000000
vn -0.70710678 0.70710678 0.0000000e+0
vn -0.70710678 0.70710678 0.0000000e+0
vn -1.7724629e-15 0.0000000e+0 1.00000000
vn -1.7724629e-15 0.0000000e+0 1.00000000
vn 0.70710678 0.70710678 0.0000000e+0
vn 1.3015815e-14 0.0000000e+0 1.00000000
vn 1.3015815e-14 0.0000000e+0 1.00000000
vn 0.70710678 0.70710678 0.0000000e+0
vn 1.00000000 0.0000000e+0 0.0000000e+0
vn 5.8208493e-15 -0.44721360 0.89442719
vn 5.8208493e-15 -0.44721360 0.89442719
vn 5.8208493e-15 -0.44721360 0.89442719
vn 5.8208493e-15 -0.44721360 0.89442719
vn 5.8208493e-15 -0.44721360 0.89442719
vn 5.8208493e-15 -0.44721360 0.89442719
vn 1.00000000 0.0000000e+0 0.0000000e+0
vn -0.40824829 -0.40824829 0.81649658
vn -0.40824829 -0.40824829 0.81649658
vn -0.40824829 -0.40824829 0.81649658
vn -0.40824829 -0.40824829 0.81649658
vn -0.70710678 -0.70710678 0.0000000e+0
vn -0.70710678 -0.70710678 0.0000000e+0
vn -1.2491398e-15 0.0000000e+0 1.00000000
vn -1.2491398e-15 0.0000000e+0 1.00000000
vn -0.70710678 -0.70710678 0.0000000e+0
vn -0.70710678 -0.70710678 0.0000000e+0
vn -1.2491398e-15 0.0000000e+0 1.00000000
vn 1.00000000 0.0000000e+0 0.0000000e+0
vn 0.0000000e+0 -1.00000000 0.0000000e+0
vn 0.0000000e+0 0.0000000e+0 1.00000000
vn 0.0000000e+0 0.0000000e+0 1.00000000
vn 0.0000000e+0 0.0000000e+0 1.00000000
vn -0.70710678 0.70710678 0.0000000e+0
vn -0.70710678 0.70710678 0.0000000e+0
vn -1.8737097e-15 0.0000000e+0 1.00000000
vn -1.8737097e-15 0.0000000e+0 1.00000000
vn 0.70710678 0.70710678 0.0000000e+0
vn 0.70710678 0.70710678 0.0000000e+0
vn 0.0000000e+0 0.0000000e+0 1.00000000
vn 0.0000000e+0 0.0000000e+0 1.00000000
vn 0.0000000e+0 0.0000000e+0 1.00000000
vn 0.70710678 0.70710678 0.0000000e+0
vn 0.70710678 0.70710678 0.0000000e+0
vn 0.0000000e+0 0.0000000e+0 1.00000000
vn 9.4708887e-15 0.0000000e+0 1.00000000
vn 9.4708887e-15 0.0000000e+0 1.00000000
vn -0.70710678 0.70710678 0.0000000e+0
vn -0.70710678 0.70710678 0.0000000e+0
vn 6.5079073e-15 0.0000000e+0 1.00000000
vn 6.5079073e-15 0.0000000e+0 1.00000000
vn 0.70710678 0.70710678 0.0000000e+0
vn 0.70710678 0.70710678 0.0000000e+0
vn 0.70710678 0.70710678 0.0000000e+0
vn 0.70710678 0.70710678 0.0000000e+0
vn 6.5079073e-15 0.0000000e+0 1.00000000
vn 6.5079073e-15 0.0000000e+0 1.00000000
vn 0.0000000e+0 0.0000000e+0 1.00000000
vn 0.0000000e+0 0.0000000e+0 1.00000000
vn 1.00000000 0.0000000e+0 0.0000000e+0
vn 0.0000000e+0 -1.00000000 0.0000000e+0
vn -1.7724629e-15 0.0000000e+0 1.00000000
vn -1.7724629e-15 0.0000000e+0 1.00000000
vn -0.70710678 -0.70710678 0.0000000e+0
vn -0.70710678 -0.70710678 0.0000000e+0
vn -1.7724629e-15 0.0000000e+0 1.00000000
vn -0.70710678 -0.70710678 0.0000000e+0
vn -0.70710678 -0.70710678 0.0000000e+0
vn -1.7724629e-15 0.0000000e+0 1.00000000
vn 0.0000000e+0 0.0000000e+0 1.00000000
vn -0.70710678 0.70710678 0.0000000e+0
vn -0.70710678 0.70710678 0.0000000e+0
vn -0.70710678 0.70710678 0.0000000e+0
vn 0.0000000e+0 0.0000000e+0 1.00000000
vn -0.70710678 0.70710678 0.0000000e+0
vn 0.70710678 0.70710678 0.0000000e+0
vn 0.70710678 0.70710678 0.0000000e+0
vn 0.0000000e+0 0.0000000e+0 1.00000000
vn 0.0000000e+0 0.0000000e+0 1.00000000
vn 1.00000000 0.0000000e+0 0.0000000e+0
vn 0.0000000e+0 -1.00000000 0.0000000e+0
vn 0.0000000e+0 0.0000000e+0 1.00000000
vn 1.00000000 0.0000000e+0 0.0000000e+0
vn 0.0000000e+0 -1.00000000 0.0000000e+0
vn 0.0000000e+0 0.0000000e+0 1.00000000
vn -0.70710678 -0.70710678 0.0000000e+0
vn -0.70710678 -0.70710678 0.0000000e+0
g Wing2_copy8_Wing2_auv
usemtl Wing2_auv
s 1
f 1/32/4 3/42/16 2/31/9
f 1/32/5 10/33/53 3/42/18
f 1/54/2 11/51/1 10/58/48
f 2/31/6 3/42/12 4/43/19
f 2/52/7 11/51/1 1/54/3
f 2/31/11 17/35/89 11/30/1
f 2/31/8 18/38/92 17/35/85
f 3/42/13 10/33/47 8/44/38
f 3/53/14 12/45/54 4/48/20
f 4/43/23 18/38/94 2/31/10
f 4/43/21 20/39/102 18/38/93
f 5/36/24 9/29/43 7/40/32
f 5/49/27 10/58/52 9/50/46
f 6/55/31 5/46/26 8/56/40
f 7/47/37 8/56/42 5/46/28
f 7/40/36 11/30/1 12/41/56
f 8/56/41 7/47/34 3/53/15
f 8/44/39 10/33/49 6/37/29
f 9/50/45 10/58/51 11/51/1
f 10/58/50 5/49/25 6/57/30
f 11/30/1 7/40/33 9/29/44
f 11/30/1 17/35/86 19/34/98
f 11/30/1 20/39/103 12/41/57
f 12/45/55 3/53/17 7/47/35
f 12/41/58 20/39/106 4/43/22
f 19/34/97 20/39/101 11/30/1
f 25/20/135 27/23/143 26/22/139
f 27/23/140 25/20/131 28/19/146
s 2
f 21/16/110 25/15/136 22/9/116
f 22/9/115 27/4/144 23/5/121
f 23/24/122 27/23/145 24/21/129
f 24/21/128 25/15/134 21/16/109
f 25/15/133 24/21/126 28/19/148
f 26/8/137 22/9/113 25/15/132
f 27/4/141 22/9/114 26/8/138
f 28/19/147 24/21/125 27/23/142
s 3
f 13/17/64 17/14/87 16/13/79
f 13/17/59 20/26/99 19/18/95
f 13/12/66 22/6/118 14/1/69
f 13/12/62 24/11/124 21/10/108
f 14/25/67 20/26/104 13/17/63
f 14/1/68 22/6/117 15/2/77
f 15/2/72 17/14/83 18/3/91
f 15/27/78 20/26/105 14/25/70
f 15/2/76 24/11/127 16/13/81
f 16/13/80 17/14/88 15/2/75
f 16/13/82 24/11/130 13/12/65
f 18/28/90 20/26/100 15/27/71
f 19/18/96 17/14/84 13/17/60
f 22/6/111 13/12/61 21/10/107
f 23/7/119 15/2/73 22/6/112
f 24/11/123 15/2/74 23/7/120
