# Exported from Wings 3D 2.1.7
mtllib SpaceStation.mtl
o Hanger
#32 vertices, 60 faces
v -0.18525600 3.1547102e-3 -1.00000000
v -0.18525600 3.1547102e-3 1.00000000
v -0.18525600 0.74715471 -1.00000000
v -0.18525600 0.74715471 1.00000000
v 0.18525600 3.1547102e-3 -1.00000000
v 0.18525600 3.1547102e-3 1.00000000
v 0.18525600 0.74715471 -1.00000000
v 0.18525600 0.74715471 1.00000000
v -0.48202131 0.22858671 -1.00000000
v -0.48202131 0.22858671 1.00000000
v -0.48202131 0.52172271 1.00000000
v -0.48202131 0.52172271 -1.00000000
v 0.48202131 0.22858671 1.00000000
v 0.48202131 0.22858671 -1.00000000
v 0.48202131 0.52172271 -1.00000000
v 0.48202131 0.52172271 1.00000000
v -0.24329465 0.53700209 -1.00000000
v -0.24329465 0.21330733 -1.00000000
v 0.24329465 0.21330733 -1.00000000
v 0.24329465 0.53700209 -1.00000000
v 0.24329465 0.53700209 1.00000000
v 0.24329465 0.21330733 1.00000000
v -0.24329465 0.21330733 1.00000000
v -0.24329465 0.53700209 1.00000000
v -0.24329465 0.53700209 -0.74234214
v 0.24329465 0.53700209 -0.74234214
v 0.24329465 0.21330733 -0.74234214
v -0.24329465 0.21330733 -0.74234214
v 0.24329465 0.53700209 0.74234214
v -0.24329465 0.53700209 0.74234214
v -0.24329465 0.21330733 0.74234214
v 0.24329465 0.21330733 0.74234214
vn -0.25025220 -0.74314994 -0.62056588
vn -0.21952591 -0.65190503 0.72582933
vn -0.28226146 0.83820478 -0.46662749
vn -0.17046037 0.50619980 0.84540228
vn 0.21952591 -0.65190503 -0.72582933
vn 0.25025220 -0.74314994 0.62056588
vn 0.17046037 0.50619980 -0.84540228
vn 0.28226146 0.83820478 0.46662749
vn -0.64284964 -0.19651591 -0.74035521
vn -0.65392283 -0.47128502 0.59184066
vn -0.68684540 0.34079305 0.64195288
vn -0.59770335 0.29656331 -0.74484959
vn 0.64284964 -0.19651591 0.74035521
vn 0.65392283 -0.47128502 -0.59184066
vn 0.68684540 0.34079305 -0.64195288
vn 0.59770335 0.29656331 0.74484959
vn 0.34815531 -0.34815531 -0.87038828
vn 0.30151134 0.30151134 -0.90453403
vn -0.34815531 0.34815531 -0.87038828
vn -0.30151134 -0.30151134 -0.90453403
vn -0.34815531 -0.34815531 0.87038828
vn -0.30151134 0.30151134 0.90453403
vn 0.34815531 0.34815531 0.87038828
vn 0.30151134 -0.30151134 0.90453403
vn 0.57735027 -0.57735027 -0.57735027
vn -0.57735027 -0.57735027 -0.57735027
vn -0.57735027 0.57735027 -0.57735027
vn 0.57735027 0.57735027 -0.57735027
vn -0.57735027 -0.57735027 0.57735027
vn 0.57735027 -0.57735027 0.57735027
vn 0.57735027 0.57735027 0.57735027
vn -0.57735027 0.57735027 0.57735027
g Hanger_default
usemtl default
s 1
f 1//1 6//6 2//2
f 1//1 19//19 5//5
f 2//2 10//10 1//1
f 2//2 23//23 10//10
f 3//3 8//8 7//7
f 3//3 11//11 4//4
f 3//3 17//17 12//12
f 4//4 8//8 3//3
f 4//4 21//21 8//8
f 5//5 6//6 1//1
f 5//5 14//14 6//6
f 5//5 19//19 14//14
f 6//6 23//23 2//2
f 7//7 17//17 3//3
f 8//8 15//15 7//7
f 8//8 21//21 16//16
f 9//9 1//1 10//10
f 9//9 18//18 1//1
f 10//10 11//11 9//9
f 10//10 23//23 11//11
f 11//11 3//3 12//12
f 11//11 24//24 4//4
f 12//12 9//9 11//11
f 12//12 17//17 9//9
f 13//13 6//6 14//14
f 13//13 22//22 6//6
f 14//14 15//15 13//13
f 14//14 19//19 15//15
f 15//15 8//8 16//16
f 15//15 20//20 7//7
f 16//16 13//13 15//15
f 16//16 21//21 13//13
f 17//17 28//28 18//18
f 18//18 9//9 17//17
f 18//18 19//19 1//1
f 18//18 28//28 19//19
f 19//19 26//26 20//20
f 20//20 15//15 19//19
f 20//20 17//17 7//7
f 20//20 26//26 17//17
f 21//21 32//32 22//22
f 22//22 13//13 21//21
f 22//22 23//23 6//6
f 22//22 32//32 23//23
f 23//23 30//30 24//24
f 24//24 11//11 23//23
f 24//24 21//21 4//4
f 24//24 30//30 21//21
f 25//25 17//17 26//26
f 25//25 28//28 17//17
f 26//26 19//19 27//27
f 26//26 28//28 25//25
f 27//27 19//19 28//28
f 27//27 28//28 26//26
f 29//29 21//21 30//30
f 29//29 32//32 21//21
f 30//30 23//23 31//31
f 30//30 32//32 29//29
f 31//31 23//23 32//32
f 31//31 32//32 30//30
o CargoPod
#16 vertices, 28 faces
v -1.49400000 -5.0956588e-2 -0.17000000
v -1.49400000 -5.0956588e-2 0.17000000
v -1.49400000 0.81740341 -0.17000000
v -1.49400000 0.81740341 0.17000000
v -1.49400000 -1.01278939 -0.77048026
v -1.49400000 -1.01278939 0.77048026
v -1.49400000 1.77923621 0.77048026
v -1.49400000 1.77923621 -0.77048026
v -2.47692417 -0.12771727 -0.28199577
v -2.47692417 -0.12771727 0.28199577
v -2.47692417 0.89416410 0.28199577
v -2.47692417 0.89416410 -0.28199577
v -0.50198400 -5.0956588e-2 -0.17000000
v -0.50198400 -5.0956588e-2 0.17000000
v -0.50198400 0.81740341 -0.17000000
v -0.50198400 0.81740341 0.17000000
vn 0.81649658 -0.40824829 -0.40824829
vn 0.81649658 -0.40824829 0.40824829
vn 0.81649658 0.40824829 -0.40824829
vn 0.81649658 0.40824829 0.40824829
vn 0.60569155 -0.50813047 -0.61232439
vn 0.60569155 -0.50813047 0.61232439
vn 0.60569155 0.50813047 0.61232439
vn 0.60569155 0.50813047 -0.61232439
vn -0.87606075 -0.30793144 -0.37107385
vn -0.87606075 -0.30793144 0.37107385
vn -0.87606075 0.30793144 0.37107385
vn -0.87606075 0.30793144 -0.37107385
vn 0.57735027 -0.57735027 -0.57735027
vn 0.57735027 -0.57735027 0.57735027
vn 0.57735027 0.57735027 -0.57735027
vn 0.57735027 0.57735027 0.57735027
g CargoPod_default
usemtl default
s 1
f 33//33 37//37 35//35
f 33//33 45//45 34//34
f 34//34 37//37 33//33
f 34//34 45//45 46//46
f 34//34 48//48 36//36
f 35//35 39//39 36//36
f 35//35 45//45 33//33
f 35//35 48//48 47//47
f 36//36 39//39 34//34
f 36//36 48//48 35//35
f 37//37 34//34 38//38
f 37//37 44//44 40//40
f 38//38 34//34 39//39
f 38//38 42//42 37//37
f 39//39 35//35 40//40
f 39//39 42//42 38//38
f 40//40 35//35 37//37
f 40//40 44//44 39//39
f 41//41 37//37 42//42
f 41//41 44//44 37//37
f 42//42 39//39 43//43
f 42//42 44//44 41//41
f 43//43 39//39 44//44
f 43//43 44//44 42//42
f 45//45 48//48 46//46
f 46//46 48//48 34//34
f 47//47 45//45 35//35
f 48//48 45//45 47//47
o CargoPod2
#16 vertices, 28 faces
v 1.49400000 -5.0956588e-2 -0.17000000
v 1.49400000 -5.0956588e-2 0.17000000
v 1.49400000 0.81740341 -0.17000000
v 1.49400000 0.81740341 0.17000000
v 1.49400000 -1.01278939 0.77048026
v 1.49400000 -1.01278939 -0.77048026
v 1.49400000 1.77923621 -0.77048026
v 1.49400000 1.77923621 0.77048026
v 2.47692417 -0.12771727 0.28199577
v 2.47692417 -0.12771727 -0.28199577
v 2.47692417 0.89416410 -0.28199577
v 2.47692417 0.89416410 0.28199577
v 0.50198400 -5.0956588e-2 -0.17000000
v 0.50198400 -5.0956588e-2 0.17000000
v 0.50198400 0.81740341 -0.17000000
v 0.50198400 0.81740341 0.17000000
vn -0.81649658 -0.40824829 -0.40824829
vn -0.81649658 -0.40824829 0.40824829
vn -0.81649658 0.40824829 -0.40824829
vn -0.81649658 0.40824829 0.40824829
vn -0.60569155 -0.50813047 0.61232439
vn -0.60569155 -0.50813047 -0.61232439
vn -0.60569155 0.50813047 -0.61232439
vn -0.60569155 0.50813047 0.61232439
vn 0.87606075 -0.30793144 0.37107385
vn 0.87606075 -0.30793144 -0.37107385
vn 0.87606075 0.30793144 -0.37107385
vn 0.87606075 0.30793144 0.37107385
vn -0.57735027 -0.57735027 -0.57735027
vn -0.57735027 -0.57735027 0.57735027
vn -0.57735027 0.57735027 -0.57735027
vn -0.57735027 0.57735027 0.57735027
g CargoPod2_default
usemtl default
s 1
f 49//49 54//54 50//50
f 49//49 61//61 51//51
f 50//50 56//56 52//52
f 50//50 61//61 49//49
f 50//50 64//64 62//62
f 51//51 54//54 49//49
f 51//51 61//61 63//63
f 51//51 64//64 52//52
f 52//52 56//56 51//51
f 52//52 64//64 50//50
f 53//53 50//50 54//54
f 53//53 56//56 50//50
f 53//53 57//57 56//56
f 54//54 51//51 55//55
f 54//54 57//57 53//53
f 55//55 51//51 56//56
f 55//55 59//59 54//54
f 56//56 59//59 55//55
f 57//57 54//54 58//58
f 58//58 54//54 59//59
f 58//58 59//59 57//57
f 59//59 56//56 60//60
f 60//60 56//56 57//57
f 60//60 57//57 59//59
f 62//62 61//61 50//50
f 62//62 64//64 61//61
f 63//63 61//61 64//64
f 63//63 64//64 51//51
o StationHub
#120 vertices, 236 faces
v 0.54139341 1.00000000 -0.22425249
v 0.54139341 1.00000000 0.22425249
v 0.22425249 1.00000000 0.54139341
v -0.22425249 1.00000000 0.54139341
v -0.54139341 1.00000000 0.22425249
v -0.54139341 1.00000000 -0.22425249
v -0.22425249 1.00000000 -0.54139341
v 0.22425249 1.00000000 -0.54139341
v 0.31725654 -1.00000000 -0.13141196
v 0.31725654 -1.00000000 0.13141196
v 0.13141196 -1.00000000 0.31725654
v -0.13141196 -1.00000000 0.31725654
v -0.31725654 -1.00000000 0.13141196
v -0.31725654 -1.00000000 -0.13141196
v -0.13141196 -1.00000000 -0.31725654
v 0.13141196 -1.00000000 -0.31725654
v 0.21509993 -2.05796404 -8.9097309e-2
v 0.21509993 -2.05796404 8.9097309e-2
v 8.9097309e-2 -2.05796404 0.21509993
v -8.9097309e-2 -2.05796404 0.21509993
v -0.21509993 -2.05796404 8.9097309e-2
v -0.21509993 -2.05796404 -8.9097309e-2
v -8.9097309e-2 -2.05796404 -0.21509993
v 8.9097309e-2 -2.05796404 -0.21509993
v 0.60753816 2.17083905 0.25165055
v 0.60753816 2.17083905 -0.25165055
v 0.25165055 2.17083905 -0.60753816
v -0.25165055 2.17083905 -0.60753816
v -0.60753816 2.17083905 -0.25165055
v -0.60753816 2.17083905 0.25165055
v -0.25165055 2.17083905 0.60753816
v 0.25165055 2.17083905 0.60753816
v 0.60753816 1.00000000 -0.25165055
v 0.60753816 1.00000000 0.25165055
v 0.25165055 1.00000000 0.60753816
v -0.25165055 1.00000000 0.60753816
v -0.60753816 1.00000000 0.25165055
v -0.60753816 1.00000000 -0.25165055
v -0.25165055 1.00000000 -0.60753816
v 0.25165055 1.00000000 -0.60753816
v 0.43613706 2.17083905 0.18065389
v 0.43613706 2.17083905 -0.18065389
v 0.18065389 2.17083905 -0.43613706
v -0.18065389 2.17083905 -0.43613706
v -0.43613706 2.17083905 -0.18065389
v -0.43613706 2.17083905 0.18065389
v -0.18065389 2.17083905 0.43613706
v 0.18065389 2.17083905 0.43613706
v 0.43613706 2.48400761 0.18065389
v 0.43613706 2.48400761 -0.18065389
v 0.18065389 2.48400761 -0.43613706
v -0.18065389 2.48400761 -0.43613706
v -0.43613706 2.48400761 -0.18065389
v -0.43613706 2.48400761 0.18065389
v -0.18065389 2.48400761 0.43613706
v 0.18065389 2.48400761 0.43613706
v 0.62439099 2.48400761 0.25863122
v 0.62439099 2.48400761 -0.25863122
v 0.25863122 2.48400761 -0.62439099
v -0.25863122 2.48400761 -0.62439099
v -0.62439099 2.48400761 -0.25863122
v -0.62439099 2.48400761 0.25863122
v -0.25863122 2.48400761 0.62439099
v 0.25863122 2.48400761 0.62439099
v 0.84043027 2.84043151 0.34811762
v 0.84043027 2.84043151 -0.34811762
v 0.34811762 2.84043151 -0.84043027
v -0.34811762 2.84043151 -0.84043027
v -0.84043027 2.84043151 -0.34811762
v -0.84043027 2.84043151 0.34811762
v -0.34811762 2.84043151 0.84043027
v 0.34811762 2.84043151 0.84043027
v 0.76142982 3.30585882 0.31539456
v 0.76142982 3.30585882 -0.31539456
v 0.31539456 3.30585882 -0.76142982
v -0.31539456 3.30585882 -0.76142982
v -0.76142982 3.30585882 -0.31539456
v -0.76142982 3.30585882 0.31539456
v -0.31539456 3.30585882 0.76142982
v 0.31539456 3.30585882 0.76142982
v 0.32865561 1.33858096 -0.79344484
v -0.32865561 1.33858096 -0.79344484
v -0.79344484 1.33858096 -0.32865561
v -0.79344484 1.33858096 0.32865561
v -0.32865561 1.33858096 0.79344484
v 0.32865561 1.33858096 0.79344484
v 0.79344484 1.33858096 0.32865561
v 0.79344484 1.33858096 -0.32865561
v 0.31066337 3.58599189 0.12868098
v 0.31066337 3.58599189 -0.12868098
v 0.12868098 3.58599189 -0.31066337
v -0.12868098 3.58599189 -0.31066337
v -0.31066337 3.58599189 -0.12868098
v -0.31066337 3.58599189 0.12868098
v -0.12868098 3.58599189 0.31066337
v 0.12868098 3.58599189 0.31066337
v 0.29878757 -2.05796404 -0.12376186
v 0.29878757 -2.05796404 0.12376186
v 0.12376186 -2.05796404 0.29878757
v -0.12376186 -2.05796404 0.29878757
v -0.29878757 -2.05796404 0.12376186
v -0.29878757 -2.05796404 -0.12376186
v -0.12376186 -2.05796404 -0.29878757
v 0.12376186 -2.05796404 -0.29878757
v 0.16194286 -2.83120626 -6.7078930e-2
v 0.16194286 -2.83120626 6.7078930e-2
v 6.7078930e-2 -2.83120626 0.16194286
v -6.7078930e-2 -2.83120626 0.16194286
v -0.16194286 -2.83120626 6.7078930e-2
v -0.16194286 -2.83120626 -6.7078930e-2
v -6.7078930e-2 -2.83120626 -0.16194286
v 6.7078930e-2 -2.83120626 -0.16194286
v 0.22425249 -0.64373367 -0.54139341
v -0.22425249 -0.64373367 -0.54139341
v -0.54139341 -0.64373367 -0.22425249
v -0.54139341 -0.64373367 0.22425249
v -0.22425249 -0.64373367 0.54139341
v 0.22425249 -0.64373367 0.54139341
v 0.54139341 -0.64373367 0.22425249
v 0.54139341 -0.64373367 -0.22425249
vn 0.62694312 -0.73450956 -0.25968834
vn 0.62694312 -0.73450956 0.25968834
vn 0.25968834 -0.73450956 0.62694312
vn -0.25968834 -0.73450956 0.62694312
vn -0.62694312 -0.73450956 0.25968834
vn -0.62694312 -0.73450956 -0.25968834
vn -0.25968834 -0.73450956 -0.62694312
vn 0.25968834 -0.73450956 -0.62694312
vn 0.86663194 -0.34653877 -0.35897070
vn 0.86663194 -0.34653877 0.35897070
vn 0.35897070 -0.34653877 0.86663194
vn -0.35897070 -0.34653877 0.86663194
vn -0.86663194 -0.34653877 0.35897070
vn -0.86663194 -0.34653877 -0.35897070
vn -0.35897070 -0.34653877 -0.86663194
vn 0.35897070 -0.34653877 -0.86663194
vn 0.65888705 0.70098684 -0.27291995
vn 0.65888705 0.70098684 0.27291995
vn 0.27291995 0.70098684 0.65888705
vn -0.27291995 0.70098684 0.65888705
vn -0.65888705 0.70098684 0.27291995
vn -0.65888705 0.70098684 -0.27291995
vn -0.27291995 0.70098684 -0.65888705
vn 0.27291995 0.70098684 -0.65888705
vn 0.54969551 0.80373596 0.22769134
vn 0.54969551 0.80373596 -0.22769134
vn 0.22769134 0.80373596 -0.54969551
vn -0.22769134 0.80373596 -0.54969551
vn -0.54969551 0.80373596 -0.22769134
vn -0.54969551 0.80373596 0.22769134
vn -0.22769134 0.80373596 0.54969551
vn 0.22769134 0.80373596 0.54969551
vn 0.44318329 -0.87743359 -0.18357253
vn 0.44318329 -0.87743359 0.18357253
vn 0.18357253 -0.87743359 0.44318329
vn -0.18357253 -0.87743359 0.44318329
vn -0.44318329 -0.87743359 0.18357253
vn -0.44318329 -0.87743359 -0.18357253
vn -0.18357253 -0.87743359 -0.44318329
vn 0.18357253 -0.87743359 -0.44318329
vn 0.62694312 0.73450956 0.25968834
vn 0.62694312 0.73450956 -0.25968834
vn 0.25968834 0.73450956 -0.62694312
vn -0.25968834 0.73450956 -0.62694312
vn -0.62694312 0.73450956 -0.25968834
vn -0.62694312 0.73450956 0.25968834
vn -0.25968834 0.73450956 0.62694312
vn 0.25968834 0.73450956 0.62694312
vn 0.62694312 -0.73450956 0.25968834
vn 0.62694312 -0.73450956 -0.25968834
vn 0.25968834 -0.73450956 -0.62694312
vn -0.25968834 -0.73450956 -0.62694312
vn -0.62694312 -0.73450956 -0.25968834
vn -0.62694312 -0.73450956 0.25968834
vn -0.25968834 -0.73450956 0.62694312
vn 0.25968834 -0.73450956 0.62694312
vn 0.42646202 -0.88708861 0.17664635
vn 0.42646202 -0.88708861 -0.17664635
vn 0.17664635 -0.88708861 -0.42646202
vn -0.17664635 -0.88708861 -0.42646202
vn -0.42646202 -0.88708861 -0.17664635
vn -0.42646202 -0.88708861 0.17664635
vn -0.17664635 -0.88708861 0.42646202
vn 0.17664635 -0.88708861 0.42646202
vn 0.90481507 -0.20210059 0.37478667
vn 0.90481507 -0.20210059 -0.37478667
vn 0.37478667 -0.20210059 -0.90481507
vn -0.37478667 -0.20210059 -0.90481507
vn -0.90481507 -0.20210059 -0.37478667
vn -0.90481507 -0.20210059 0.37478667
vn -0.37478667 -0.20210059 0.90481507
vn 0.37478667 -0.20210059 0.90481507
vn 0.74727769 0.58801841 0.30953255
vn 0.74727769 0.58801841 -0.30953255
vn 0.30953255 0.58801841 -0.74727769
vn -0.30953255 0.58801841 -0.74727769
vn -0.74727769 0.58801841 -0.30953255
vn -0.74727769 0.58801841 0.30953255
vn -0.30953255 0.58801841 0.74727769
vn 0.30953255 0.58801841 0.74727769
vn 0.37823391 -0.15204970 -0.91313745
vn -0.37823391 -0.15204970 -0.91313745
vn -0.91313745 -0.15204970 -0.37823391
vn -0.91313745 -0.15204970 0.37823391
vn -0.37823391 -0.15204970 0.91313745
vn 0.37823391 -0.15204970 0.91313745
vn 0.91313745 -0.15204970 0.37823391
vn 0.91313745 -0.15204970 -0.37823391
vn 0.31401358 0.94046670 0.13006868
vn 0.26945231 0.95652417 -0.11161080
vn 7.7776041e-2 0.97912924 -0.18776797
vn -0.13006868 0.94046670 -0.31401358
vn -0.31401358 0.94046670 -0.13006868
vn -0.26945231 0.95652417 0.11161080
vn -7.7776041e-2 0.97912924 0.18776797
vn 0.13006868 0.94046670 0.31401358
vn 0.68410411 0.67209057 -0.28336520
vn 0.68410411 0.67209057 0.28336520
vn 0.28336520 0.67209057 0.68410411
vn -0.28336520 0.67209057 0.68410411
vn -0.68410411 0.67209057 0.28336520
vn -0.68410411 0.67209057 -0.28336520
vn -0.28336520 0.67209057 -0.68410411
vn 0.28336520 0.67209057 -0.68410411
vn 0.74224027 -0.59544634 -0.30744599
vn 0.74224027 -0.59544634 0.30744599
vn 0.26844662 -0.71268439 0.64808747
vn -0.18270773 -0.87866527 0.44109549
vn -0.74224027 -0.59544634 0.30744599
vn -0.74224027 -0.59544634 -0.30744599
vn -0.26844662 -0.71268439 -0.64808747
vn 0.18270773 -0.87866527 -0.44109549
vn 0.36529882 -0.29798092 -0.88190937
vn -0.36529882 -0.29798092 -0.88190937
vn -0.88190937 -0.29798092 -0.36529882
vn -0.88190937 -0.29798092 0.36529882
vn -0.36529882 -0.29798092 0.88190937
vn 0.36529882 -0.29798092 0.88190937
vn 0.88190937 -0.29798092 0.36529882
vn 0.88190937 -0.29798092 -0.36529882
g StationHub_default
usemtl default
s 1
f 65//65 97//97 66//66
f 65//65 184//184 72//72
f 66//66 97//97 98//98
f 66//66 99//99 67//67
f 66//66 182//182 183//183
f 66//66 184//184 65//65
f 67//67 99//99 68//68
f 67//67 182//182 66//66
f 68//68 99//99 100//100
f 68//68 101//101 69//69
f 68//68 180//180 181//181
f 68//68 182//182 67//67
f 69//69 101//101 70//70
f 69//69 180//180 68//68
f 70//70 101//101 102//102
f 70//70 103//103 71//71
f 70//70 178//178 179//179
f 70//70 180//180 69//69
f 71//71 103//103 72//72
f 71//71 178//178 70//70
f 72//72 97//97 65//65
f 72//72 103//103 104//104
f 72//72 178//178 71//71
f 72//72 184//184 177//177
f 73//73 81//81 80//80
f 73//73 184//184 74//74
f 74//74 81//81 73//73
f 74//74 182//182 75//75
f 74//74 184//184 183//183
f 75//75 83//83 74//74
f 75//75 182//182 76//76
f 76//76 83//83 75//75
f 76//76 180//180 77//77
f 76//76 182//182 181//181
f 77//77 85//85 76//76
f 77//77 180//180 78//78
f 78//78 85//85 77//77
f 78//78 178//178 79//79
f 78//78 180//180 179//179
f 79//79 87//87 78//78
f 79//79 178//178 80//80
f 80//80 87//87 79//79
f 80//80 178//178 177//177
f 80//80 184//184 73//73
f 81//81 74//74 82//82
f 81//81 168//168 88//88
f 82//82 74//74 83//83
f 82//82 162//162 81//81
f 83//83 76//76 84//84
f 83//83 162//162 82//82
f 84//84 76//76 85//85
f 84//84 164//164 83//83
f 85//85 78//78 86//86
f 85//85 164//164 84//84
f 86//86 78//78 87//87
f 86//86 166//166 85//85
f 87//87 80//80 88//88
f 87//87 166//166 86//86
f 88//88 80//80 81//81
f 88//88 168//168 87//87
f 89//89 105//105 96//96
f 89//89 151//151 90//90
f 90//90 105//105 89//89
f 90//90 145//145 91//91
f 90//90 151//151 152//152
f 91//91 107//107 90//90
f 91//91 145//145 92//92
f 92//92 107//107 91//91
f 92//92 145//145 146//146
f 92//92 147//147 93//93
f 93//93 109//109 92//92
f 93//93 147//147 94//94
f 94//94 109//109 93//93
f 94//94 147//147 148//148
f 94//94 149//149 95//95
f 95//95 111//111 94//94
f 95//95 149//149 96//96
f 96//96 111//111 95//95
f 96//96 149//149 150//150
f 96//96 151//151 89//89
f 97//97 145//145 152//152
f 98//98 97//97 151//151
f 98//98 99//99 66//66
f 99//99 151//151 150//150
f 100//100 99//99 149//149
f 100//100 101//101 68//68
f 101//101 149//149 148//148
f 102//102 101//101 147//147
f 102//102 103//103 70//70
f 103//103 147//147 146//146
f 104//104 97//97 72//72
f 104//104 103//103 145//145
f 105//105 90//90 106//106
f 105//105 120//120 112//112
f 106//106 90//90 107//107
f 106//106 114//114 105//105
f 107//107 92//92 108//108
f 107//107 114//114 106//106
f 108//108 92//92 109//109
f 108//108 116//116 107//107
f 109//109 94//94 110//110
f 109//109 116//116 108//108
f 110//110 94//94 111//111
f 110//110 118//118 109//109
f 111//111 96//96 112//112
f 111//111 118//118 110//110
f 112//112 96//96 105//105
f 112//112 120//120 111//111
f 113//113 105//105 114//114
f 113//113 120//120 105//105
f 113//113 121//121 120//120
f 114//114 107//107 115//115
f 114//114 121//121 113//113
f 115//115 107//107 116//116
f 115//115 123//123 114//114
f 116//116 109//109 117//117
f 116//116 123//123 115//115
f 117//117 109//109 118//118
f 117//117 125//125 116//116
f 118//118 111//111 119//119
f 118//118 125//125 117//117
f 119//119 111//111 120//120
f 119//119 127//127 118//118
f 120//120 127//127 119//119
f 121//121 114//114 122//122
f 121//121 136//136 128//128
f 122//122 114//114 123//123
f 122//122 130//130 121//121
f 123//123 116//116 124//124
f 123//123 130//130 122//122
f 124//124 116//116 125//125
f 124//124 132//132 123//123
f 125//125 118//118 126//126
f 125//125 132//132 124//124
f 126//126 118//118 127//127
f 126//126 134//134 125//125
f 127//127 120//120 128//128
f 127//127 134//134 126//126
f 128//128 120//120 121//121
f 128//128 136//136 127//127
f 129//129 121//121 130//130
f 129//129 136//136 121//121
f 129//129 137//137 136//136
f 130//130 123//123 131//131
f 130//130 137//137 129//129
f 131//131 123//123 132//132
f 131//131 139//139 130//130
f 132//132 125//125 133//133
f 132//132 139//139 131//131
f 133//133 125//125 134//134
f 133//133 141//141 132//132
f 134//134 127//127 135//135
f 134//134 141//141 133//133
f 135//135 127//127 136//136
f 135//135 143//143 134//134
f 136//136 143//143 135//135
f 137//137 130//130 138//138
f 137//137 160//160 144//144
f 138//138 130//130 139//139
f 138//138 154//154 137//137
f 139//139 132//132 140//140
f 139//139 154//154 138//138
f 140//140 132//132 141//141
f 140//140 156//156 139//139
f 141//141 134//134 142//142
f 141//141 156//156 140//140
f 142//142 134//134 143//143
f 142//142 158//158 141//141
f 143//143 136//136 144//144
f 143//143 158//158 142//142
f 144//144 136//136 137//137
f 144//144 160//160 143//143
f 145//145 97//97 104//104
f 146//146 145//145 103//103
f 146//146 147//147 92//92
f 147//147 103//103 102//102
f 148//148 147//147 101//101
f 148//148 149//149 94//94
f 149//149 101//101 100//100
f 150//150 149//149 99//99
f 150//150 151//151 96//96
f 151//151 99//99 98//98
f 152//152 145//145 90//90
f 152//152 151//151 97//97
f 153//153 137//137 154//154
f 153//153 160//160 137//137
f 154//154 139//139 155//155
f 154//154 160//160 153//153
f 155//155 139//139 156//156
f 155//155 159//159 154//154
f 156//156 141//141 157//157
f 156//156 158//158 155//155
f 157//157 141//141 158//158
f 157//157 158//158 156//156
f 158//158 143//143 159//159
f 159//159 143//143 160//160
f 159//159 155//155 158//158
f 160//160 154//154 159//159
f 161//161 81//81 162//162
f 161//161 168//168 81//81
f 161//161 169//169 168//168
f 162//162 83//83 163//163
f 162//162 169//169 161//161
f 163//163 83//83 164//164
f 163//163 171//171 162//162
f 164//164 85//85 165//165
f 164//164 171//171 163//163
f 165//165 85//85 166//166
f 165//165 173//173 164//164
f 166//166 87//87 167//167
f 166//166 173//173 165//165
f 167//167 87//87 168//168
f 167//167 175//175 166//166
f 168//168 175//175 167//167
f 169//169 162//162 170//170
f 169//169 171//171 176//176
f 170//170 162//162 171//171
f 170//170 171//171 169//169
f 171//171 164//164 172//172
f 172//172 164//164 173//173
f 172//172 176//176 171//171
f 173//173 166//166 174//174
f 173//173 175//175 172//172
f 174//174 166//166 175//175
f 174//174 175//175 173//173
f 175//175 168//168 176//176
f 176//176 168//168 169//169
f 176//176 172//172 175//175
f 177//177 178//178 72//72
f 177//177 184//184 80//80
f 179//179 178//178 78//78
f 179//179 180//180 70//70
f 181//181 180//180 76//76
f 181//181 182//182 68//68
f 183//183 182//182 74//74
f 183//183 184//184 66//66
